# xmcd
#
# Track frame offsets:
#	150
#	17812
#	33035
#	48308
#	65920
#	82890
#	98244
#	114216
#	131114
#	148741
#	166403
#	181626
#	196899
#	214511
#	231481
#	246835
#	262807
#	279705
#
# Disc length: 3964
#
# Revision: 2
# Processed by: cddbd v1.5.2PL0 Copyright (c) Steve Scherf et al.
# Submitted via: kJams Pro (development) 1.0patch45.20
#
DISCID=f80f7a12
DTITLE=Various Artist - NSC 3041
DYEAR=2004
DGENRE=Country
TTITLE0=Wynonna Judd - What The World Needs
TTITLE1=Kenny Chesney - No Shoes, No Shirt, No Problems
TTITLE2=Joe Nichols - She Only Smokes When She Drinks
TTITLE3=Buddy Jewell - Help Pour Out The Rain  (Lacy's Song)
TTITLE4=Clay Walker - A Few Questions
TTITLE5=Dusty Drake - One Last Time
TTITLE6=Aaron Lines - Love Changes Everything
TTITLE7=Terri Clark - Three Mississippi
TTITLE8=Dierks Bentley - What Was I Thinkin'
TTITLE9=Wynonna Judd - Vocals - What The World Needs 
TTITLE10=Kenny Chesney - Vocals - No Shoes, No Shirt, No Problems 
TTITLE11=Joe Nichols - Vocals - She Only Smokes When She Drinks 
TTITLE12=Buddy Jewell - Vocals - Help Pour Out The Rain  (Lacy's Song)
TTITLE13=Clay Walker - Vocals - A Few Questions
TTITLE14=Dusty Drake - Vocals - One Last Time
TTITLE15=Aaron Lines - Vocals - Love Changes Everything
TTITLE16=Terri Clark - Vocals - Three Mississippi
TTITLE17=Dierks Bentley - Vocals - What Was I Thinkin'
EXTD=
EXTT0=
EXTT1=
EXTT2=
EXTT3=
EXTT4=
EXTT5=
EXTT6=
EXTT7=
EXTT8=
EXTT9=
EXTT10=
EXTT11=
EXTT12=
EXTT13=
EXTT14=
EXTT15=
EXTT16=
EXTT17=
PLAYORDER=
